<?xml version="1.0" encoding="UTF-8" standalone="no"?>
<svg width="60px" height="60px" viewBox="0 0 60 60" version="1.1" xmlns="http://www.w3.org/2000/svg" xmlns:xlink="http://www.w3.org/1999/xlink">
    <!-- Generator: Sketch 3.7.2 (28276) - http://www.bohemiancoding.com/sketch -->
    <title>Rectangle 11 Copy 36 + Unknown + Group Type + 1 + Oval 129 Copy + R Copy Copy</title>
    <desc>Created with Sketch.</desc>
    <defs></defs>
    <g id="Symbols" stroke="none" stroke-width="1" fill="none" fill-rule="evenodd">
        <g id="Must_non_active" transform="translate(-376.000000, -142.000000)" fill="#4A4A4A">
            <g id="Rectangle-11-Copy-36-+-Unknown-+-Group-Type-+-1-+-Oval-129-Copy-+-R-Copy-Copy" transform="translate(376.000000, 142.000000)">
                <g id="1-+-Oval-129-Copy-+-R-Copy-Copy">
                    <path d="M30,60 C46.5685425,60 60,46.5685425 60,30 C60,13.4314575 46.5685425,0 30,0 C13.4314575,0 0,13.4314575 0,30 C0,46.5685425 13.4314575,60 30,60 Z M41.1878333,43.5 L38.3078333,43.5 L37.6238333,40.476 C36.4238273,41.8440068 35.2238393,42.7919974 34.0238333,43.32 C32.8238273,43.8480026 31.4438411,44.112 29.8838333,44.112 C27.9638237,44.112 26.241841,43.7580035 24.7178333,43.05 C23.1938257,42.3419965 21.9038386,41.3760061 20.8478333,40.152 C19.7918281,38.9279939 18.9818362,37.5000082 18.4178333,35.868 C17.8538305,34.2359918 17.5718333,32.4960092 17.5718333,30.648 C17.5718333,28.8239909 17.8538305,27.0960082 18.4178333,25.464 C18.9818362,23.8319918 19.7918281,22.4040061 20.8478333,21.18 C21.9038386,19.9559939 23.1938257,18.9840036 24.7178333,18.264 C26.241841,17.5439964 27.9638237,17.184 29.8838333,17.184 C31.2758403,17.184 32.601827,17.3699981 33.8618333,17.742 C35.1218396,18.1140019 36.2438284,18.6659963 37.2278333,19.398 C38.2118383,20.1300037 39.0278301,21.0479945 39.6758333,22.152 C40.3238366,23.2560055 40.7318325,24.5279928 40.8998333,25.968 L36.5078333,25.968 C36.3878327,25.1279958 36.1298353,24.3900032 35.7338333,23.754 C35.3378314,23.1179968 34.8398363,22.5840022 34.2398333,22.152 C33.6398303,21.7199978 32.9678371,21.3960011 32.2238333,21.18 C31.4798296,20.9639989 30.6998374,20.856 29.8838333,20.856 C28.5158265,20.856 27.3338383,21.1319972 26.3378333,21.684 C25.3418284,22.2360028 24.5318365,22.9739954 23.9078333,23.898 C23.2838302,24.8220046 22.8218348,25.8719941 22.5218333,27.048 C22.2218318,28.2240059 22.0718333,29.4239939 22.0718333,30.648 C22.0718333,31.8720061 22.2218318,33.0719941 22.5218333,34.248 C22.8218348,35.4240059 23.2838302,36.4739954 23.9078333,37.398 C24.5318365,38.3220046 25.3418284,39.0599972 26.3378333,39.612 C27.3338383,40.1640028 28.5158265,40.44 29.8838333,40.44 C31.0358391,40.4640001 32.0558289,40.3140016 32.9438333,39.99 C33.8318378,39.6659984 34.5818303,39.1980031 35.1938333,38.586 C35.8058364,37.9739969 36.2678318,37.2240044 36.5798333,36.336 C36.8918349,35.4479956 37.0598332,34.4640054 37.0838333,33.384 L30.2438333,33.384 L30.2438333,29.964 L41.1878333,29.964 L41.1878333,43.5 Z" id="Combined-Shape"></path>
                </g>
            </g>
        </g>
    </g>
</svg>