<?xml version="1.0" encoding="UTF-8" standalone="no"?>
<svg width="370px" height="519px" viewBox="0 0 370 519" version="1.1" xmlns="http://www.w3.org/2000/svg" xmlns:xlink="http://www.w3.org/1999/xlink" xmlns:sketch="http://www.bohemiancoding.com/sketch/ns">
    <!-- Generator: Sketch 3.3.3 (12081) - http://www.bohemiancoding.com/sketch -->
    <title>Rectangle 21 + Oval 1 Copy 8 + Oval 1 Copy Copy Copy + Mr.Black Copy 7 Copy</title>
    <desc>Created with Sketch.</desc>
    <defs>
        <linearGradient x1="50%" y1="177.465171%" x2="50%" y2="-30.8498218%" id="linearGradient-1">
            <stop stop-color="#FFFFFF" offset="0%"></stop>
            <stop stop-color="#2D2737" offset="100%"></stop>
        </linearGradient>
    </defs>
    <g id="Page-1" stroke="none" stroke-width="1" fill="none" fill-rule="evenodd" sketch:type="MSPage">
        <g id="Artboard-1-Copy" sketch:type="MSArtboardGroup" transform="translate(-2382.000000, -887.000000)" fill="#FFFFFF">
            <g id="Rectangle-21-+-Oval-1-Copy-8-+-Oval-1-Copy-Copy-Copy-+-Mr.Black-Copy-7-Copy" sketch:type="MSLayerGroup" transform="translate(2382.000000, 886.000000)">
                <g id="Rectangle-21-+-Oval-1-Copy-8-+-Oval-1-Copy-Copy-Copy-+-Mr.Black-Copy-7" transform="translate(0.350617, 0.744856)" sketch:type="MSShapeGroup">
                    <g>
                        <g id="Rectangle-21-+-Oval-1-Copy-8-+-Oval-1-Copy-Copy-Copy" transform="translate(17.057379, 0.000000)">
                            <path d="M275.120815,86.8731602 C282.556642,84.650296 290.702133,84.6969947 300.002927,87.9623675 C330.589539,98.70088 337.651783,133.705406 315.085749,173.501305 C293.311777,211.900381 243.083567,249.038616 182.031179,259.803811 C119.969655,270.746943 66.4881852,255.942416 32.5292293,223.323643 C4.0587893,195.976783 -15.2150433,166.093589 17.4464067,137.784706 C20.7441157,134.92646 25.1281314,134.102391 30.4281532,134.692843 C30.3495994,134.538439 30.271942,134.38376 30.1951857,134.228806 C27.8871452,129.569396 31.8553983,107.33438 30.9224733,102.149276 C23.085383,58.5915104 69.4303783,14.1746181 134.436917,2.94137043 C199.443457,-8.29187722 258.494886,17.9123222 266.331976,61.470088 C266.836033,64.2715876 271.919634,77.3602544 275.120815,86.8731602 Z M46.6573923,154.205593 C64.533117,187.61762 120.0353,208.096743 171.299821,199.057425 C225.397721,189.518506 271.721825,156.105316 273.04716,116.4406 C273.055541,116.18975 273.026313,115.856104 272.963791,115.449577 C258.839307,146.316338 215.370138,171.224571 166.242551,179.713907 C121.143612,187.507085 73.2972146,176.202367 46.6573923,154.205593 Z M171.741907,318.175114 C166.549113,312.223852 151.386846,311.543323 143.310205,314.782226 C133.418683,318.748934 132.038527,324.028052 117.692757,327.109992 C103.346987,330.191931 77.1793401,316.878634 77.7295398,317.864167 C77.9593577,318.275824 99.2481958,339.651575 128.964434,339.651575 C152.830674,339.651575 166.995423,335.537763 171.741907,328.596071 C176.488391,335.537763 190.65314,339.651575 214.519379,339.651575 C244.235618,339.651575 265.524456,318.275824 265.754274,317.864167 C266.304473,316.878634 240.136826,330.191931 225.791057,327.109992 C211.445287,324.028052 210.065131,318.748934 200.173608,314.782226 C192.096967,311.543323 176.934701,312.223852 171.741907,318.175114 L171.741907,318.175114 Z" id="Rectangle-21"></path>
                        </g>
                        <path d="M0.396209447,515.853946 L15.1608972,440.370279 L39.2386957,494.936785 L64.1796605,440.370279 L77.4451646,515.853946 L66.5874404,515.853946 L59.8183989,473.473959 L39.0569764,519.082464 L18.8861415,473.428487 L11.3447933,515.853946 L0.396209447,515.853946 Z M90.3472302,471.564132 L100.568937,471.564132 L100.568937,475.520203 C102.446712,473.549736 104.112455,472.200744 105.566216,471.473187 C107.050264,470.715315 108.806866,470.336385 110.836074,470.336385 C113.531589,470.336385 116.348209,471.215503 119.286018,472.973766 L114.606748,482.341017 C112.6684,480.946532 110.77551,480.2493 108.928022,480.2493 C103.355271,480.2493 100.568937,484.463005 100.568937,492.890541 L100.568937,515.853946 L90.3472302,515.853946 L90.3472302,471.564132 Z M121.784658,510.761072 C121.784658,509.063439 122.405525,507.593189 123.64728,506.350279 C124.889034,505.107369 126.37306,504.485924 128.099401,504.485924 C129.825742,504.485924 131.309768,505.107369 132.551522,506.350279 C133.793277,507.593189 134.414144,509.078596 134.414144,510.806544 C134.414144,512.564807 133.793277,514.065371 132.551522,515.308281 C131.340055,516.520876 129.856029,517.127164 128.099401,517.127164 C126.312486,517.127164 124.813318,516.520876 123.60185,515.308281 C122.390382,514.095686 121.784658,512.579964 121.784658,510.761072 L121.784658,510.761072 Z M150.859735,515.853946 L150.859735,445.645041 L161.399451,445.645041 C166.093888,445.645041 169.834238,446.008814 172.620613,446.736371 C175.437276,447.463928 177.814745,448.691662 179.753093,450.41961 C181.721728,452.208188 183.281469,454.436298 184.432364,457.104007 C185.613544,459.802032 186.204126,462.53033 186.204126,465.288983 C186.204126,470.321253 184.28095,474.580429 180.43454,478.06664 C184.159803,479.339865 187.097568,481.567975 189.247923,484.751037 C191.428565,487.903784 192.518869,491.57183 192.518869,495.755283 C192.518869,501.242275 190.58055,505.880382 186.703854,509.669742 C184.371779,512.003987 181.752019,513.625809 178.844497,514.535255 C175.664395,515.414387 171.681755,515.853946 166.896457,515.853946 L150.859735,515.853946 Z M161.44488,475.793036 L164.761256,475.793036 C168.698526,475.793036 171.58329,474.921496 173.415635,473.178391 C175.24798,471.435285 176.164138,468.866138 176.164138,465.470872 C176.164138,462.16655 175.225265,459.658032 173.34749,457.945241 C171.469715,456.232451 168.743954,455.376068 165.170125,455.376068 L161.44488,455.376068 L161.44488,475.793036 Z M161.44488,505.895558 L167.986773,505.895558 C172.77207,505.895558 176.285273,504.955811 178.526488,503.076289 C180.88885,501.045192 182.070013,498.468466 182.070013,495.346034 C182.070013,492.314546 180.93428,489.768135 178.662778,487.706723 C176.451849,485.675626 172.499496,484.660093 166.805598,484.660093 L161.44488,484.660093 L161.44488,505.895558 Z M214.143458,439.051588 L214.143458,515.853946 L203.921751,515.853946 L203.921751,439.051588 L214.143458,439.051588 Z M259.709556,471.564132 L269.976693,471.564132 L269.976693,515.853946 L259.709556,515.853946 L259.709556,511.215793 C255.499706,515.156727 250.971914,517.127164 246.126043,517.127164 C240.008132,517.127164 234.950331,514.914211 230.952487,510.488239 C226.984931,505.971323 225.001182,500.33284 225.001182,493.572622 C225.001182,486.933664 226.984931,481.401282 230.952487,476.97531 C234.920044,472.549338 239.886987,470.336385 245.853465,470.336385 C251.002202,470.336385 255.620853,472.458395 259.709556,476.702478 L259.709556,471.564132 Z M235.450038,493.572622 C235.450038,497.816705 236.585772,501.272549 238.857274,503.940259 C241.189349,506.638283 244.127114,507.987274 247.670657,507.987274 C251.456493,507.987274 254.515403,506.683754 256.847478,504.076675 C259.179553,501.378651 260.345573,497.953121 260.345573,493.799983 C260.345573,489.646845 259.179553,486.221315 256.847478,483.523291 C254.515403,480.885897 251.486779,479.567219 247.761516,479.567219 C244.24826,479.567219 241.310496,480.901054 238.948134,483.568763 C236.616058,486.266787 235.450038,489.601373 235.450038,493.572622 L235.450038,493.572622 Z M317.314553,473.473959 L317.314553,487.070114 C314.982478,484.220515 312.892728,482.265235 311.04524,481.204214 C309.228038,480.112879 307.092859,479.567219 304.639637,479.567219 C300.793227,479.567219 297.598029,480.916211 295.053947,483.614235 C292.509865,486.312259 291.237843,489.692317 291.237843,493.754511 C291.237843,497.907649 292.464436,501.318021 294.917658,503.985731 C297.401166,506.65344 300.566078,507.987274 304.412488,507.987274 C306.86571,507.987274 309.031175,507.456772 310.90895,506.395751 C312.726152,505.365045 314.861331,503.364294 317.314553,500.393436 L317.314553,513.898646 C313.165277,516.051002 309.016062,517.127164 304.866786,517.127164 C298.021994,517.127164 292.297895,514.914211 287.694318,510.488239 C283.090741,506.031952 280.788987,500.49957 280.788987,493.890927 C280.788987,487.282284 283.121027,481.70443 287.785178,477.157198 C292.449328,472.609967 298.173427,470.336385 304.957645,470.336385 C309.318929,470.336385 313.437857,471.382233 317.314553,473.473959 L317.314553,473.473959 Z M339.847738,439.051588 L339.847738,485.887839 L354.248988,471.564132 L367.96879,471.564132 L348.751981,490.162216 L369.377114,515.853946 L356.11161,515.853946 L341.483211,497.164917 L339.847738,498.801913 L339.847738,515.853946 L329.626031,515.853946 L329.626031,439.051588 L339.847738,439.051588 Z" id="Mr.Black-Copy-7"></path>
                    </g>
                </g>
            </g>
        </g>
    </g>
</svg>